name C:\Users\r0593348\3dpredictsim\Results\Final\Fal_s1_bCst_PF_None_ls150_MT_k1500_MTP_T17_ig24.mot
datacolumns 128
datarows 4
range 0.55749202 0.59094154
endheader
time	pelvis_tilt	pelvis_list	pelvis_rotation	pelvis_tx	pelvis_ty	pelvis_tz	hip_flexion_l	hip_adduction_l	hip_rotation_l	hip_flexion_r	hip_adduction_r	hip_rotation_r	knee_angle_l	knee_angle_r	ankle_angle_l	ankle_angle_r	subtalar_angle_l	subtalar_angle_r	mtj_angle_l	mtj_angle_r	mtp_angle_l	mtp_angle_r	lumbar_extension	lumbar_bending	lumbar_rotation	arm_flex_l	arm_add_l	arm_rot_l	arm_flex_r	arm_add_r	arm_rot_r	elbow_flex_l	elbow_flex_r	pro_sup_l	pro_sup_r	glut_med1_l/activation	glut_med2_l/activation	glut_med3_l/activation	glut_min1_l/activation	glut_min2_l/activation	glut_min3_l/activation	semimem_l/activation	semiten_l/activation	bifemlh_l/activation	bifemsh_l/activation	sar_l/activation	add_long_l/activation	add_brev_l/activation	add_mag1_l/activation	add_mag2_l/activation	add_mag3_l/activation	tfl_l/activation	pect_l/activation	grac_l/activation	glut_max1_l/activation	glut_max2_l/activation	glut_max3_l/activation	iliacus_l/activation	psoas_l/activation	quad_fem_l/activation	gem_l/activation	peri_l/activation	rect_fem_l/activation	vas_med_l/activation	vas_int_l/activation	vas_lat_l/activation	med_gas_l/activation	lat_gas_l/activation	soleus_l/activation	tib_post_l/activation	flex_dig_l/activation	flex_hal_l/activation	tib_ant_l/activation	per_brev_l/activation	per_long_l/activation	per_tert_l/activation	ext_dig_l/activation	ext_hal_l/activation	ercspn_l/activation	intobl_l/activation	extobl_l/activation	glut_med1_r/activation	glut_med2_r/activation	glut_med3_r/activation	glut_min1_r/activation	glut_min2_r/activation	glut_min3_r/activation	semimem_r/activation	semiten_r/activation	bifemlh_r/activation	bifemsh_r/activation	sar_r/activation	add_long_r/activation	add_brev_r/activation	add_mag1_r/activation	add_mag2_r/activation	add_mag3_r/activation	tfl_r/activation	pect_r/activation	grac_r/activation	glut_max1_r/activation	glut_max2_r/activation	glut_max3_r/activation	iliacus_r/activation	psoas_r/activation	quad_fem_r/activation	gem_r/activation	peri_r/activation	rect_fem_r/activation	vas_med_r/activation	vas_int_r/activation	vas_lat_r/activation	med_gas_r/activation	lat_gas_r/activation	soleus_r/activation	tib_post_r/activation	flex_dig_r/activation	flex_hal_r/activation	tib_ant_r/activation	per_brev_r/activation	per_long_r/activation	per_tert_r/activation	ext_dig_r/activation	ext_hal_r/activation	ercspn_r/activation	intobl_r/activation	extobl_r/activation	
          0.55749202	         -2.93017637	          2.05934455	         -4.93475625	          0.69686502	          0.91969460	          0.00210858	         29.69055990	          3.36038810	         -1.74467234	        -17.39220032	         -1.01225297	          6.51058886	        -12.24311760	         -5.59094556	          6.39462882	         -0.31671806	         -5.03830919	          8.36517915	          0.08326405	          1.94060247	          0.31015342	         20.47412921	         -2.13271312	         -0.27731166	          1.92785315	         -4.43036312	        -13.49555105	          8.25987171	          5.91592361	        -13.45236517	         17.42654787	         15.51649913	         32.33177285	         86.51662706	         86.51662706	          0.09006385	          0.05000039	          0.05929163	          0.05000029	          0.05000037	          0.05000165	          0.20715917	          0.05929196	          0.05929350	          0.05000070	          0.05000212	          0.10613570	          0.18494532	          0.21727262	          0.16235491	          0.12084892	          0.05929157	          0.05028233	          0.05934513	          0.07030245	          0.07031121	          0.12481298	          0.05000029	          0.05000039	          0.25943987	          0.05115476	          0.05000088	          0.05000110	          0.10410297	          0.10399293	          0.09027613	          0.05338254	          0.05000270	          0.05929127	          0.05000019	          0.05000106	          0.05000109	          0.50435419	          0.30300154	          0.18275345	          0.19395239	          0.47966215	          0.21712577	          0.06584419	          0.12208989	          0.11574246	          0.31141067	          0.11238879	          0.08323322	          0.33357434	          0.21558856	          0.11725009	          0.05000280	          0.05000073	          0.05000048	          0.06796003	          0.11703262	          0.05000050	          0.05000038	          0.05000050	          0.05000144	          0.05000113	          0.33686269	          0.05000194	          0.05000143	          0.05004901	          0.05000777	          0.05000305	          0.41496308	          0.64902746	          0.05000088	          0.05000223	          0.05743374	          0.22098050	          0.05000141	          0.05000098	          0.05000095	          0.31040838	          0.42386755	          0.31548462	          0.29161694	          0.31251318	          0.39386013	          0.05000012	          0.05465536	          0.12636985	          0.05000063	          0.05000018	          0.05000063	          0.05000003	          0.05000005	          0.05000011	
          0.56864186	         -2.92745058	          2.16386905	         -5.23727636	          0.71347123	          0.91864011	          0.00189773	         29.11810825	          3.71523180	         -1.54056745	        -17.30222081	         -1.32067683	          6.28470200	        -12.11629909	         -7.44228246	          5.86164767	         -0.93784493	         -5.43280146	          9.29624376	          0.09335664	          1.74059238	          0.32623053	         21.59351161	         -1.94588904	         -0.49244033	          1.99524035	         -5.29772259	        -13.49632900	          7.99615888	          5.67798750	        -13.46092123	         17.73013905	         15.16734945	         33.52107748	         86.51662706	         86.51662706	          0.07595048	          0.05396700	          0.05000057	          0.05929248	          0.05929110	          0.05000193	          0.18020538	          0.05000111	          0.05000189	          0.05000156	          0.05000565	          0.09890242	          0.15596352	          0.22949016	          0.18610117	          0.12233506	          0.05000074	          0.05001333	          0.05004627	          0.05928647	          0.05929304	          0.14293872	          0.05000954	          0.05000560	          0.53051230	          0.13855106	          0.05001050	          0.07030996	          0.18517960	          0.18544338	          0.15790943	          0.05000004	          0.05000011	          0.05000001	          0.05000085	          0.05000230	          0.05000199	          0.55759177	          0.25927059	          0.19722070	          0.36067980	          0.50236951	          0.19566782	          0.05552587	          0.10295730	          0.09760457	          0.26261009	          0.09477650	          0.07018994	          0.28130052	          0.18180401	          0.09887604	          0.05000466	          0.05000115	          0.05000113	          0.05731027	          0.09869314	          0.10261727	          0.06749917	          0.05004993	          0.05001290	          0.05000536	          0.28407364	          0.07600792	          0.05002074	          0.05000517	          0.05000421	          0.05000397	          0.34993474	          0.59671027	          0.05000172	          0.05006912	          0.05929172	          0.18862769	          0.05000569	          0.15532160	          0.13873672	          0.26176453	          0.35744371	          0.28124335	          0.27451225	          0.26355516	          0.34991625	          0.05000013	          0.05000205	          0.12978286	          0.05000058	          0.05000016	          0.05000064	          0.05000023	          0.07030966	          0.05000016	
          0.57979170	         -2.92090922	          2.26602925	         -5.51688187	          0.73038981	          0.91763570	          0.00169848	         28.44170347	          4.00810614	         -1.28240924	        -17.13787527	         -1.62577801	          6.04955001	        -12.54718836	         -9.42105991	          5.25753392	         -1.71564331	         -5.84419563	         10.19293256	          0.02296499	          1.49494485	          0.29115467	         22.61632522	         -1.73807133	         -0.71271901	          2.05217453	         -6.20275050	        -13.49987383	          7.75893821	          5.36094204	        -13.46942809	         17.96123234	         14.88152515	         34.69622679	         86.51662706	         86.51662706	          0.25494160	          0.05000021	          0.25759965	          0.05000106	          0.05000044	          0.20835934	          0.16744429	          0.05000126	          0.07117187	          0.05000026	          0.05000085	          0.08340579	          0.23998142	          0.19352814	          0.15693918	          0.14101208	          0.05000136	          0.05931114	          0.11225702	          0.05000039	          0.05000154	          0.12054026	          0.05767681	          0.05000255	          0.44737620	          0.11683905	          0.14425604	          0.05929178	          0.15616045	          0.15638290	          0.13316374	          0.05867969	          0.05929135	          0.05902985	          0.05929152	          0.05929000	          0.05000551	          0.47021216	          0.28987280	          0.16631458	          0.30415925	          0.53356585	          0.16500500	          0.05000011	          0.11406750	          0.08230905	          0.31004405	          0.07992422	          0.05919067	          0.23721870	          0.15331380	          0.08338134	          0.05000340	          0.05000143	          0.05000134	          0.05000036	          0.08322764	          0.14355554	          0.08792951	          0.05929580	          0.05928937	          0.05929021	          0.23955744	          0.08336883	          0.05001830	          0.05003277	          0.05002857	          0.05035306	          0.29509713	          0.56432414	          0.05484840	          0.05000264	          0.05000045	          0.15906808	          0.13916429	          0.13098367	          0.11699822	          0.22074361	          0.30142901	          0.23716992	          0.23149409	          0.22225436	          0.29508187	          0.05000006	          0.05000172	          0.15381937	          0.05000024	          0.05000007	          0.05000032	          0.05410019	          0.05929154	          0.05319133	
          0.59094154	         -2.91231386	          2.36893074	         -5.76542530	          0.74745721	          0.91669034	          0.00148966	         27.66335061	          4.25939185	         -1.01674604	        -16.88014911	         -1.92650686	          5.81128640	        -13.01782463	        -11.53965269	          4.75264212	         -2.66437386	         -6.24508802	         11.03282360	          0.03484886	          1.23837309	          0.28888080	         23.47221725	         -1.52583631	         -0.94103920	          2.10042387	         -7.10381875	        -13.50626796	          7.56494909	          4.98653112	        -13.48070212	         18.12825582	         14.63442069	         35.84840081	         86.51662706	         86.51662706	          0.31149194	          0.27086004	          0.33680965	          0.14749673	          0.19992443	          0.17570897	          0.14120430	          0.08287460	          0.06001898	          0.08337431	          0.05010729	          0.07033542	          0.20237419	          0.16320081	          0.13234592	          0.15364027	          0.05000112	          0.05001723	          0.09466632	          0.20769757	          0.15801026	          0.13043701	          0.05000020	          0.05000026	          0.37726839	          0.09852985	          0.12165029	          0.05000033	          0.13168894	          0.13187662	          0.11229598	          0.05000023	          0.05000053	          0.05000006	          0.05000015	          0.05000034	          0.05000049	          0.59519623	          0.34391719	          0.18647666	          0.56082765	          0.56259120	          0.27446156	          0.07634464	          0.09897451	          0.06941048	          0.29461201	          0.06739944	          0.05000027	          0.32925414	          0.12928832	          0.07031484	          0.05000586	          0.05000052	          0.05000041	          0.05000076	          0.07018671	          0.13933299	          0.07415068	          0.05000444	          0.05000273	          0.05000145	          0.24772763	          0.07031052	          0.05000187	          0.05000346	          0.05000215	          0.05000146	          0.24885295	          0.52485364	          0.05000031	          0.05000205	          0.05000137	          0.13575813	          0.11735797	          0.11045965	          0.13902567	          0.18615105	          0.25419232	          0.20000320	          0.19521698	          0.18742541	          0.24884011	          0.05000014	          0.08566477	          0.15366135	          0.05000065	          0.05000072	          0.05000065	          0.06868714	          0.05000005	          0.05000007	
